<svg xmlns="http://www.w3.org/2000/svg" version="1.1" xmlns:xlink="http://www.w3.org/1999/xlink" width="1000" height="1000"><style>
    #light-icon {
      display: inline;
    }
    #dark-icon {
      display: none;
    }

    @media (prefers-color-scheme: dark) {
      #light-icon {
        display: none;
      }
      #dark-icon {
        display: inline;
      }
    }
  </style><g id="light-icon"><svg xmlns="http://www.w3.org/2000/svg" version="1.1" xmlns:xlink="http://www.w3.org/1999/xlink" width="1000" height="1000"><g><g transform="matrix(1.953125,0,0,1.953125,0,0)" style="filter: contrast(1) brightness(0.1)"><svg xmlns="http://www.w3.org/2000/svg" version="1.1" xmlns:xlink="http://www.w3.org/1999/xlink" width="512" height="512"><svg id="Layer_1" xmlns="http://www.w3.org/2000/svg" width="512" height="512" viewBox="0 0 512 512"><defs><style>.cls-1{fill:#f2f2f2;}</style></defs><rect class="cls-1" y="303.91" width="208.09" height="208.09" rx="37.45" ry="37.45"></rect><path class="cls-1" d="M465.92,256h-163.84c-25.45,0-46.08-20.63-46.08-46.08V46.08c0-25.45-20.63-46.08-46.08-46.08H46.08C20.63,0,0,20.63,0,46.08V209.92c0,25.45,20.63,46.08,46.08,46.08H209.92c25.45,0,46.08,20.63,46.08,46.08v163.84c0,25.45,20.63,46.08,46.08,46.08h163.84c25.45,0,46.08-20.63,46.08-46.08v-163.84c0-25.45-20.63-46.08-46.08-46.08Z"></path></svg></svg></g></g></svg></g><g id="dark-icon"><svg xmlns="http://www.w3.org/2000/svg" version="1.1" xmlns:xlink="http://www.w3.org/1999/xlink" width="1000" height="1000"><g><g transform="matrix(1.953125,0,0,1.953125,0,0)"><svg xmlns="http://www.w3.org/2000/svg" version="1.1" xmlns:xlink="http://www.w3.org/1999/xlink" width="512" height="512"><svg id="Layer_1" xmlns="http://www.w3.org/2000/svg" width="512" height="512" viewBox="0 0 512 512"><defs><style>.cls-1{fill:#f2f2f2;}</style></defs><rect class="cls-1" y="303.91" width="208.09" height="208.09" rx="37.45" ry="37.45"></rect><path class="cls-1" d="M465.92,256h-163.84c-25.45,0-46.08-20.63-46.08-46.08V46.08c0-25.45-20.63-46.08-46.08-46.08H46.08C20.63,0,0,20.63,0,46.08V209.92c0,25.45,20.63,46.08,46.08,46.08H209.92c25.45,0,46.08,20.63,46.08,46.08v163.84c0,25.45,20.63,46.08,46.08,46.08h163.84c25.45,0,46.08-20.63,46.08-46.08v-163.84c0-25.45-20.63-46.08-46.08-46.08Z"></path></svg></svg></g></g></svg></g></svg>