<svg xmlns="http://www.w3.org/2000/svg" id="Layer_1" viewBox="0 0 512 444.61" width="512" height="444.61"><metadata><rdf:RDF xmlns:rdf="http://www.w3.org/1999/02/22-rdf-syntax-ns#" xmlns:dc="http://purl.org/dc/elements/1.1/"><rdf:Description><dc:creator>RealFaviconGenerator</dc:creator><dc:source>https://realfavicongenerator.net</dc:source></rdf:Description></rdf:RDF></metadata><defs><linearGradient id="grad1" x1="0" y1="0" x2="512" y2="494.61" gradientUnits="userSpaceOnUse"><stop offset="0%" style="stop-color:#6366f1"></stop><stop offset="100%" style="stop-color:#06b6d4"></stop></linearGradient><style>.cls-1{fill:url(#grad1);}</style></defs><path class="cls-1" d="M287.38,74.72c4.85,4.71,9.59,9.63,14.4,14.4,1.63,1.63,3.41,3.45,5.14,5.14,1.59,1.55,5.2,6.04,6.85,6.85l12.99,13.97-.28.97c-92.13,92.34-184.71,184.15-276.93,276.49-.72.5-1.37,1.24-2.31.99-.87-.23-3.56-3.48-4.35-4.24-10.02-9.87-20.06-19.79-30.03-29.64-4.35-4.31-8.87-8.66-12.86-13.22l.35-1.04L272.62,72.83c1.92-.77,4.81-5.58,6.67-5.31.75.11,7.01,6.18,8.08,7.21h0Z"></path><path class="cls-1" d="M463.87,51.12c.58-.18,1.17-.14,1.66.26,13.26,13.25,26.47,26.6,39.75,39.79,1.64,1.63,3.8,3.1,5.33,4.96.77.94,1.84,1.93,1.19,3.26L233.68,377.13l-1.17-.19-46.98-47.3.39-.99c83.82-84.04,167.85-167.91,251.82-251.52l26.13-26h0Z"></path><path class="cls-1" d="M211.16.02c1.17-.28,2.5,1.92,3.18,2.53,12.59,11.25,25.45,25.27,37.36,37.38,1.92,1.95,5.4,4.82,6.87,6.85.35.47.82.98.65,1.64l-131.1,130.89-1.31.28-35.55-35.79c-2.53-2.54-5.39-4.95-7.9-7.52-.48-.48-3.48-3.72-3.59-3.97-.18-.37-.28-.7-.12-1.12L211.17.04h-.01Z"></path><path class="cls-1" d="M384.66,265.06c.5-.14.93-.08,1.31.28,15.49,15.63,30.84,31.32,46.47,46.8l.29.98-132.07,131.5-47.26-47.08-.18-1.22,131.45-131.25h-.01Z"></path><path class="cls-1" d="M452.22,200.94c.58-.18,1.17-.14,1.66.26l41.31,41.33,1.01,1.73-43.39,43.37-43.37-43.4c-.08-.43.14-.69.35-1.04.9-1.49,5.64-5.55,7.23-7.17,6.94-7.03,14.07-14.12,21.09-21.09l14.12-14.01h0Z"></path><path class="cls-1" d="M58.9,157.4c.58-.18,1.17-.14,1.66.26,10.4,10.29,20.82,20.57,31.01,31.05,3.77,3.88,7.95,7.53,11.34,11.66l-43.4,43.39c-.43.04-.7-.15-1.05-.36-1.58-.95-5.83-5.9-7.52-7.57-.47-.47-1.05-.76-1.56-1.17l-33.27-33.98,42.78-43.29h.01Z"></path></svg>