<svg xmlns="http://www.w3.org/2000/svg" version="1.1" xmlns:xlink="http://www.w3.org/1999/xlink" width="512" height="512"><svg id="SvgjsSvg1054" xmlns="http://www.w3.org/2000/svg" width="512" height="512" viewBox="0 0 512 512"><defs><style>.cls-1{fill:#212121;}</style></defs><rect class="cls-1" y="303.91" width="208.09" height="208.09" rx="37.45" ry="37.45"></rect><path class="cls-1" d="M465.92,256h-163.84c-25.45,0-46.08-20.63-46.08-46.08V46.08c0-25.45-20.63-46.08-46.08-46.08H46.08C20.63,0,0,20.63,0,46.08V209.92c0,25.45,20.63,46.08,46.08,46.08H209.92c25.45,0,46.08,20.63,46.08,46.08v163.84c0,25.45,20.63,46.08,46.08,46.08h163.84c25.45,0,46.08-20.63,46.08-46.08v-163.84c0-25.45-20.63-46.08-46.08-46.08Z"></path></svg><style>@media (prefers-color-scheme: light) { :root { filter: none; } }
@media (prefers-color-scheme: dark) { :root { filter: invert(100%); } }
</style></svg>