<svg xmlns="http://www.w3.org/2000/svg" version="1.1" xmlns:xlink="http://www.w3.org/1999/xlink" width="1000" height="1000"><style>
    #light-icon {
      display: inline;
    }
    #dark-icon {
      display: none;
    }

    @media (prefers-color-scheme: dark) {
      #light-icon {
        display: none;
      }
      #dark-icon {
        display: inline;
      }
    }
  </style><g id="light-icon"><svg xmlns="http://www.w3.org/2000/svg" version="1.1" xmlns:xlink="http://www.w3.org/1999/xlink" width="1000" height="1000"><g><g transform="matrix(1.953125,0,0,1.953125,0,0)"><svg xmlns="http://www.w3.org/2000/svg" version="1.1" id="Layer_1" viewBox="0 0 512 512" width="512" height="512"><defs>
    <style>
      .st0 {
        fill: #181818;
      }

      .st1 {
        fill: #31cb72;
      }
    </style>
  </defs><rect class="st0" x="33" y="1.5" width="86" height="394.09" rx="16" ry="16"></rect><rect class="st0" x="147.41" y="1.95" width="218.35" height="86" rx="16" ry="16"></rect><rect class="st0" x="33.31" y="424.05" width="332.45" height="86" rx="16" ry="16"></rect><rect class="st1" x="393.45" y="1.5" width="86" height="509" rx="16" ry="16"></rect></svg></g></g></svg></g><g id="dark-icon"><svg xmlns="http://www.w3.org/2000/svg" version="1.1" xmlns:xlink="http://www.w3.org/1999/xlink" width="1000" height="1000"><g><g transform="matrix(1.953125,0,0,1.953125,0,0)"><svg xmlns="http://www.w3.org/2000/svg" version="1.1" id="Layer_1" viewBox="0 0 512 512" width="512" height="512"><defs>
    <style>
      .st0 {
        fill: #ffffff;
      }

      .st1 {
        fill: #31cb72;
      }
    </style>
  </defs><rect class="st0" x="33" y="1.5" width="86" height="394.09" rx="16" ry="16"></rect><rect class="st0" x="147.41" y="1.95" width="218.35" height="86" rx="16" ry="16"></rect><rect class="st0" x="33.31" y="424.05" width="332.45" height="86" rx="16" ry="16"></rect><rect class="st1" x="393.45" y="1.5" width="86" height="509" rx="16" ry="16"></rect></svg></g></g></svg></g></svg>