<svg xmlns="http://www.w3.org/2000/svg" xmlns:xlink="http://www.w3.org/1999/xlink" id="Layer_1" viewBox="0 0 1433.44 1403.52" width="1433.44" height="1403.52"><defs><style>.cls-1{fill:url(#linear-gradient-2);}.cls-2{fill:url(#linear-gradient-4);}.cls-3{fill:url(#linear-gradient-3);}.cls-4{fill:url(#linear-gradient-5);}.cls-5{fill:url(#linear-gradient-6);}.cls-6{fill:url(#linear-gradient);}</style><linearGradient id="linear-gradient" x1="1182.67" y1="1412.16" x2="260.82" y2="-208.2" gradientTransform="translate(0 1403.48) scale(1 -1)" gradientUnits="userSpaceOnUse"><stop offset="0" stop-color="#ff0037"></stop><stop offset="1" stop-color="#7f1d24"></stop></linearGradient><linearGradient id="linear-gradient-2" x1="982.84" y1="1525.85" x2="60.99" y2="-94.52" gradientTransform="translate(0 1403.48) scale(1 -1)" gradientUnits="userSpaceOnUse"><stop offset="0" stop-color="#ff0037"></stop><stop offset="1" stop-color="#7f1d24"></stop></linearGradient><linearGradient id="linear-gradient-3" x1="1422.15" y1="1275.91" x2="500.31" y2="-344.44" gradientTransform="translate(0 1403.48) scale(1 -1)" gradientUnits="userSpaceOnUse"><stop offset="0" stop-color="#ff0037"></stop><stop offset="1" stop-color="#7f1d24"></stop></linearGradient><linearGradient id="linear-gradient-4" x1="1203.64" y1="1400.22" x2="281.79" y2="-220.14" gradientTransform="translate(0 1403.48) scale(1 -1)" gradientUnits="userSpaceOnUse"><stop offset="0" stop-color="#ff0037"></stop><stop offset="1" stop-color="#7f1d24"></stop></linearGradient><linearGradient id="linear-gradient-5" x1="1061.22" y1="1481.24" x2="139.38" y2="-139.11" gradientTransform="translate(0 1403.48) scale(1 -1)" gradientUnits="userSpaceOnUse"><stop offset="0" stop-color="#ff0037"></stop><stop offset="1" stop-color="#7f1d24"></stop></linearGradient><linearGradient id="linear-gradient-6" x1="739.81" y1="1664.11" x2="-182.04" y2="43.75" gradientTransform="translate(0 1403.48) scale(1 -1)" gradientUnits="userSpaceOnUse"><stop offset="0" stop-color="#ff0037"></stop><stop offset="1" stop-color="#7f1d24"></stop></linearGradient></defs><path class="cls-6" d="M1418.68,372.21c-.19.86-.38,1.73-.59,2.57l.43-1.73c.08-.28.15-.57.19-.86,0,.02-.02.02-.02.02h-.01ZM695.46,51.78c-.39.19-.77.4-1.13.64.42-.04.8-.09,1.2-.15l-.07-.49ZM750.4,24.1h.07c.58-.26,1.18-.53,1.77-.79-.62.26-1.25.53-1.84.79Z"></path><path class="cls-1" d="M572.29,1028.83c-.86-3.97-1.8-7.89-2.82-11.79-2.28-8.96-4.9-17.77-7.85-26.35-10.25-29.97-24.37-57.61-41.57-82.37-1.27-1.84-2.56-3.66-3.85-5.45-6.05-8.41-12.51-16.47-19.28-24.16-5.77-6.57-11.79-12.89-18.03-18.92-50.12-48.3-114.27-78.15-181.95-82.17-.08.1-.11.13-.19.24l1.99,6.98c.17.65.31,1.27.46,1.86.17.65.31,1.3.45,1.94.06.12.08.24.1.36.38,1.67.79,3.47,1.1,5.26.02.02.02.04.02.07,2.01,10.22,3.02,20.81,3.02,31.4,0,1.49-.02,2.97-.08,4.43-1.72,66.32-42.35,124.24-104.46,148.38-17.41,6.79-35.8,10.5-54.67,11.03-1.51.04-3.09.07-4.69.07-27.98,0-54.89-6.91-78.93-20.18-6.53-3.61-12.81-7.67-18.89-12.2-1.38-1.03-2.79-2.15-4.23-3.25l-1.46-1.2c-.91-.72-1.8-1.48-2.68-2.24-1.14-.93-2.23-1.92-3.26-2.95-.03,0-.04,0-.08.01-1.05,2.41-2.09,4.85-3.09,7.32-17.6,43.24-26.05,91.46-23.35,141.38.98,18.32,3.44,36.88,7.54,55.48,37.18,169.57,192.86,279.5,347.7,245.56,2.6-.57,5.18-1.18,7.74-1.84,31.27-7.82,60.01-21.05,85.56-38.63,14.35-9.83,27.69-21.03,39.91-33.41,39.43-39.85,67.35-91.82,80.08-149.48,1.93-8.76,3.53-17.66,4.76-26.67,5.16-38.1,3.83-78.17-5.03-118.49v-.02ZM215.09,1218.28c-2.89,1.48-6.04,2.21-9.16,2.21-4.16,0-8.29-1.3-11.81-3.86l-99.57-72.34c-7.65-5.55-12.22-14.52-12.22-23.98s4.57-18.43,12.22-23.99l99.57-72.34c6.16-4.47,14.19-5.1,20.97-1.65,6.79,3.46,11,10.33,11,17.94,0,6.52-3.18,12.67-8.5,16.44l-79.66,56.33c-2.39,1.69-3.76,4.34-3.76,7.27s1.37,5.59,3.76,7.28l79.66,56.31c5.32,3.77,8.5,9.92,8.5,16.44,0,7.62-4.21,14.48-11,17.94h0ZM257.24,1272.49c-2.77,7.54-9.93,12.22-17.52,12.22-2.13,0-4.3-.37-6.41-1.14-4.68-1.72-8.4-5.15-10.5-9.67-2.09-4.52-2.29-9.58-.57-14.26l107.73-293.37c1.72-4.67,5.15-8.39,9.67-10.49,4.52-2.09,9.58-2.3,14.26-.58,9.65,3.55,14.62,14.28,11.07,23.93l-107.73,293.37h0ZM492.04,1144.29l-99.57,72.34c-3.52,2.56-7.65,3.86-11.81,3.86-3.12,0-6.26-.73-9.16-2.21-6.79-3.46-11-10.32-11-17.94,0-6.52,3.19-12.67,8.5-16.44l79.66-56.31c2.39-1.69,3.76-4.34,3.76-7.28s-1.37-5.58-3.76-7.27l-79.66-56.33c-5.33-3.77-8.5-9.92-8.5-16.44,0-7.61,4.21-14.48,11-17.94,6.78-3.46,14.81-2.82,20.97,1.65l99.57,72.34c7.65,5.55,12.22,14.52,12.22,23.99s-4.57,18.42-12.22,23.98h0Z"></path><path class="cls-3" d="M1433.44,440.8c0,36.83-2.79,73.79-8.27,109.85-.46,2.95-.91,5.89-1.41,8.83-10.69,64.9-30.24,127.98-58.07,187.53-21.38,45.75-47.66,89.4-78.19,129.8-69.47,92.03-160.87,166.93-264.25,216.61l-1.34.64-.27.22c-6.81,3.25-13.95,6.53-21.28,9.75l-2.32,1.01c-6.45,2.83-13.06,5.6-19.68,8.22h-.02l-1.2.48-.12.04-.79.31c-.76.31-1.53.59-2.32.91l-.04.02c-3.78,1.48-7.61,2.94-11.41,4.35-.31.12-.59.24-.89.34-3.53,1.31-7.08,2.6-10.61,3.85-2.11.76-4.24,1.5-6.36,2.22-2.13.74-4.26,1.46-6.4,2.15-.85.31-1.74.59-2.6.86-2.43.81-4.88,1.6-7.34,2.37-3.11,1-6.25,1.96-9.38,2.92-2.15.65-4.31,1.29-6.46,1.92-2.14.64-4.32,1.27-6.5,1.86-.67.19-1.32.38-1.96.55-3.68,1.03-7.35,2.03-11.03,2.98-6.53,1.71-13.06,3.33-19.59,4.84-.43.09-.95.24-1.57.4-10.58,2.94-20.33,8.3-28.61,15.53-36.9,32.12-83.62,49.65-133.03,49.65-33.27,0-69.11-9.09-98.27-24.64,2.54-11.23,4.54-22.7,6.05-34.26,5.34-41.16,3.97-84.34-4.99-127.81l8.25-7.23c1.48-1.22,3-2.43,4.54-3.7l12.7-10.37c21-17.12,42.6-34.87,56.15-46.01,4.1-3.38,9.91-3.61,14.28-.59l85.1,58.79c2.03,1.59,4.35,2.33,6.62,2.33,5.68,0,11.03-4.59,10.82-11.14-.36-10.69-.7-21.79-.7-25.32,0-66.8,49.75-124.42,115.74-134.04l6.93-.98c1.21-3.42,28.36-53.53,28.36-53.53l59.24,34.87,33.68-67.9,41.97,35.52,43.09-72.21,22.27,23.99c5.71-2.89,11.39-5.92,16.86-9.26,31.55-19.04,61.3-41.16,88.59-65.84,34.13-30.83,64.52-65.85,90.41-103.85,23.22-34.13,42.81-70.71,58.14-108.85v-.02c6.34-15.76,11.98-31.81,16.91-48.12.38,9.7.57,19.42.57,29.13v.03Z"></path><path class="cls-2" d="M1072.63,273.89l-19.76,100.66c-3.15,16.17-15.14,29.18-30.97,33.68l-80.49,22.89c.08-2.79.1-5.6.1-8.39,0-19.95-1.54-39.52-4.48-58.62-.38-2.41.5-4.84,2.37-6.44l.02-.02c36.17-30.47,76.11-56.2,118.72-76.44v-.02c5.03-2.63,9.86-5.07,14.47-7.29h.02Z"></path><path class="cls-4" d="M1309.05,107.89c-7.17-.99-14.52-1.49-21.86-1.49-1.25,0-2.49.02-3.76.06-.93.02-1.88.04-2.82.09-1.11.04-2.21.1-3.31.17-.81.04-1.65.1-2.46.17-.7.04-1.39.1-2.09.17-.47.04-.93.09-1.4.15-.99.09-1.96.19-2.93.3-1.02.12-2.01.25-3.01.39-.31.04-.63.07-.93.11-1.18.17-2.34.36-3.49.55h-.08c-.15-.04-.26-.11-.4-.17-47.69,8.78-88.19,38.18-111.88,78.59-.06.12-.12.21-.17.31-.7,1.22-1.39,2.43-2.04,3.68-.76,1.44-1.5,2.87-2.22,4.33s-1.41,2.92-2.08,4.4c-2.73,5.91-5.05,11.96-6.99,18.15l-.02.06c-2.77,5.52-9.83,11.59-15.71,13.46-5.32,1.69-11.1,3.58-15.05,4.95-8.87,3.13-17.65,6.46-26.33,9.97-10.19,4.16-20.28,8.61-30.16,13.32v-.02c-41.71,19.85-80.98,44.7-116.84,73.98-2.34,1.91-4.69,3.85-7.01,5.81l-.11.09c-7.1,6.02-10.67,15.21-9.62,24.47,1.17,10.45,2.05,21.07,2.6,31.83.36,7.23.61,14.37.65,21.49.04,3.22.04,6.45.02,9.66-.04,3.7-.15,7.42-.31,11.07-.34,8.56-1,17.03-1.96,25.42-3.51,31.24-11.07,61.25-22.09,89.54-7.9,20.23-24.4,35.88-44.99,42.71l-82.73,27.51c5.94-20.09,12.94-39.73,21.05-58.84,12.06-28.53,26.5-55.92,43.2-81.89.02-.06.04-.08.07-.12,5.15-7.99,9.74-16.34,13.59-25.04,9.74-21.91,18.28-43.68,25.59-65.05-22.17,24.27-42.12,50.25-59.67,77.73-31.86,49.72-55.87,104.27-71.21,162.3-.13.57-.3,1.17-.45,1.74-.31,1.16-.59,2.28-.89,3.42-1.88,7.37-3.61,14.79-5.16,22.23-3.84,17.84-6.78,35.89-8.87,54.1-1.16,9.94-2.04,19.95-2.66,29.97-.57,8.99-.91,18.03-1.05,27.1-.04,2.56-.07,5.12-.07,7.67-2.96,1.18-5.77,2.32-8.45,3.44l-2.22.93c-44.44,18.68-86.54,43.06-125.11,72.42-10.84,8.26-21.58,17.05-31.78,26.07-1.73-2.47-3.49-4.9-5.26-7.32-.55-.75-1.08-1.49-1.65-2.21-12.77-17.17-26.88-32.97-42.12-47.32-.4-.38-.82-.76-1.22-1.16-8.35-7.8-17.01-15.14-25.95-22l-.02-.02c-2.6-2.01-5.26-3.97-7.92-5.88-37.88-27.47-80.57-46.76-125.53-56.11-13.42-2.78-27.03-4.69-40.78-5.64l16.46-12.46,19.66-14.9,52.7-39.94.02-.02c5.52-2.66,11.07-5.45,16.59-8.35,7.61-3.95,15.17-8.11,22.61-12.44,11.23-6.53,22.34-13.49,33.08-20.69,7.27-4.95,13.95-9.68,20.42-14.46l4.84-3.61v-.06c28.94-21.88,55.49-46.2,79.42-72.58,85.22-93.76,137.65-213.48,147.65-341.59,23.7-17.2,48.55-32.36,74.4-45.44,7.78-3.95,15.62-7.71,23.58-11.24.55-.24,1.1-.5,1.68-.72,21.54-9.62,43.77-17.79,66.53-24.58,3.23-.94,6.46-1.87,9.7-2.78,24.26-6.74,49.09-11.81,74.19-15.16,26.6-3.55,53.12-7.63,79.48-12.63,23.34-4.42,47.5-8.1,72.32-10.95-25.7-3.47-51.78-5.22-78.11-5.22-9.95,0-20.12.27-30.26.79-42.04,2.18-83.78,8.95-124.03,20.12-5.9,1.65-11.79,3.38-17.63,5.17-25.13,7.86-49.6,17.39-73.31,28.55-.34.15-.68.31-1.02.48-8.04,3.8-16,7.8-23.9,11.98-25.06,13.34-49.2,28.58-72.28,45.65l-4.33,3.3-.5,5.51c-8.18,119.58-54.91,231.79-131.68,321.18-26.79,31.18-57.23,59.6-90.98,84.56l-2.68,1.99c-5.39,3.95-10.95,7.88-16.91,11.92-10.27,6.91-20.92,13.59-31.7,19.85-3.85,2.23-7.74,4.43-11.65,6.55-3.28,1.82-6.57,3.59-9.87,5.32v-77.64c0-32.04,13.3-62.35,36.23-83.92,4.79-4.54,10.03-8.71,15.62-12.39,3.14-2.09,4.86-5.53,4.86-9.07,0-1.99-.55-4.02-1.69-5.81l-5.83-9.12c-.15-.21-.29-.45-.42-.66-11.62-18.78-9.54-42.98,5.19-59.51l.27-.29c8.2-9.26,14.99-19.75,20.11-31.16,27.43-61.16,96.15-189.83,214.08-261.39,6.61-4.02,13.37-7.84,20.28-11.48,2.2-1.14,4.38-2.3,6.55-3.44,14.98-7.99,29.83-16.21,45.14-23.03l2.13-.95c29.61-13.08,60.57-23.61,92.06-31.26,42.67-10.41,86.77-15.67,131.07-15.67,89.88,0,176.86,21.53,254.72,62.09,24.77,12.89,48.64,27.72,71.39,44.44h.02l1.86,1.37h-.01Z"></path><path class="cls-5" d="M669.79,55.82c-19.21,3.01-38.17,6.83-56.87,11.5-106.34,26.29-204.27,78.38-286.88,153.02-48.89,44.15-90.36,94.28-123.73,148.93-10.02,16.44-19.32,33.28-27.86,50.49-20.05,40.32-35.95,82.67-47.46,126.45-11.5,43.81-18.58,89.06-21.05,135.3-.11,2.49-1.02,4.81-2.48,6.7-1.46,1.88-3.47,3.32-5.83,4.08-14.85,4.69-28.78,11.85-41.38,21.24-6.63,4.96-12.87,10.56-18.59,16.69C13.37,756.19,0,790.11,0,825.72c0,23.85,6.1,47.41,17.65,68.12,3.04,5.4,6.44,10.64,10.12,15.56l.02.03c.86,1.17,1.72,2.29,2.63,3.41l.27.34c.21.29.43.53.64.8l.25.3c.74.91,1.53,1.84,2.32,2.73l.45.55c.53.61,1.05,1.18,1.56,1.75.02.02.02.04.02.04.26.27.53.55.76.84.26.26.53.55.76.81.04.02.08.08.1.1.3.34.62.66.93,1,.48.5.95.99,1.44,1.46.11.12.24.25.34.36.11.12.24.25.36.36.36.36.64.67.98.99.86.85,1.58,1.53,2.32,2.22.83.81,1.67,1.56,2.51,2.3l1,.93c.52.48,1.04.94,1.59,1.39l.44.35c.65.58,1.29,1.13,1.94,1.65l1.34,1.08c1.25.99,2.45,1.94,3.67,2.83.02.02.04.02.07.04.76.57,1.53,1.12,2.3,1.67.74.53,1.48,1.05,2.24,1.58.53.36,1.05.72,1.58,1.05.47.34.95.64,1.46.95.38.27.76.53,1.17.76.99.63,1.96,1.22,2.94,1.82.77.48,1.56.94,2.34,1.39.86.5,1.77.98,2.64,1.48.09.04.17.1.26.15,1.56.89,3.16,1.69,4.79,2.47.36.19.72.36,1.04.49.42.22.82.42,1.22.61.15.07.29.13.46.21.3.12.56.28.91.38,1.05.64,2.18,1.12,3.34,1.51.1.06.22.11.34.16,1.46.59,2.92,1.2,4.38,1.75.29.11.55.21.81.3.65.25,1.3.48,1.94.72.1.03.17.06.27.1.13.04.28.09.4.15.86.3,1.74.59,2.63.89.86.28,1.75.57,2.64.83.55.19,1.12.36,1.69.53,1.37.4,2.8.79,4.16,1.2.59.13,1.18.26,1.75.4.93.21,1.93.48,2.89.67.57.13,1.12.26,1.67.38,1.96.43,3.95.81,5.94,1.12.85.15,1.72.26,2.58.4.34.04.7.1,1.05.15,1.14.17,2.29.31,3.47.43,1.23.15,2.5.29,3.77.38,2.3.22,4.62.36,6.97.44.72.04,1.46.07,2.2.07,1.1.02,2.18.04,3.28.04,1.31,0,2.66-.02,3.95-.07h.07c16.17-.45,31.83-3.61,46.68-9.4,52.86-20.54,87.49-69.72,89.22-126.08.04-1.46.07-2.94.07-4.43,0-9.07-.86-18.12-2.58-26.88-.29-1.55-.61-3.03-.96-4.49-.28-1.27-.57-2.42-.85-3.59l-1.67-5.96c-.2-.67-.42-1.31-.63-1.94-.15-.45-.28-.93-.43-1.36-.08-.17-.12-.31-.17-.48l-.19-.55c-.27-.76-.53-1.53-.82-2.29-.49-1.44-1-2.73-1.53-4.05l-.12-.3c-.17-.48-.38-.94-.55-1.39l-.15-.36c-.24-.57-.47-1.14-.74-1.73-.26-.59-.49-1.17-.74-1.72-.31-.67-.53-1.17-.76-1.63l-.21-.48c-.34-.74-.67-1.46-1.03-2.14-.4-.84-.83-1.68-1.25-2.49-.57-1.14-1.17-2.28-1.76-3.35l-.03-.04c-5.86-10.69-2.96-24.03,6.75-31.38l29.15-21.98,19.42-14.66,53.38-40.27v-103.95c0-19.4,4.86-38.12,13.78-54.67s21.89-30.92,38.06-41.61l-11.6-18.11c-12.72-19.87-9.59-46.09,7.72-62.11,13.8-12.77,24.9-28.36,32.48-45.9,43.11-99.92,113.65-185.55,203.87-247.23,8.54-5.86,17.24-11.48,26.12-16.89,3.38-2.05,6.77-4.06,10.19-6.05.72-.43,1.46-.84,2.2-1.27-8.2.98-16.38,2.11-24.51,3.4h-.04ZM139.97,893.24c-2.61,0-5.17-.13-7.71-.38v-.02c-5.59-.57-11.02-1.8-16.17-3.64-7.63-2.66-14.73-6.55-20.97-11.52-11.7-9.19-20.5-21.98-24.76-36.64-1.88-6.46-2.88-13.25-2.88-20.31s.93-13.32,2.67-19.57c4.16-14.9,12.99-27.86,24.78-37.22,12.36-9.83,28.03-15.68,45.04-15.68s34.15,6.43,46.77,17.08c11.68,9.87,20.2,23.34,23.77,38.7,1.3,5.35,1.99,10.95,1.99,16.69,0,40.03-32.48,72.51-72.53,72.51h0Z"></path></svg>