<svg xmlns="http://www.w3.org/2000/svg" width="20" height="16.961" viewBox="0 0 20 16.961"><g transform="translate(94.951 -5.29)"><path d="M11.021,20.25A2,2,0,0,1,9.6,19.664l-6.87-6.87A5.816,5.816,0,0,1,1.05,8.625,5.376,5.376,0,0,1,6.479,3.29a5.376,5.376,0,0,1,3.875,1.594l.667.667L11.568,5h0A5.6,5.6,0,0,1,18.9,4.41a5.5,5.5,0,0,1,.54,8.244l-7,7.01a2,2,0,0,1-1.421.587ZM6.452,4.617A4.082,4.082,0,0,0,3.611,5.764,4,4,0,0,0,2.384,8.652a4.482,4.482,0,0,0,1.3,3.2l6.87,6.87a.667.667,0,0,0,.947,0l7.01-7.016a4.168,4.168,0,0,0,1.181-3.2A4.122,4.122,0,0,0,18.07,5.471a4.248,4.248,0,0,0-5.582.474l-.994,1.02a.667.667,0,0,1-.947,0L9.413,5.831A4.188,4.188,0,0,0,6.479,4.617Z" transform="translate(-96 2)" fill="#062B31"/></g></svg>