<svg xmlns="http://www.w3.org/2000/svg" width="37.151" height="27.5" viewBox="0 0 37.151 27.5"><g transform="translate(0.08 -8.26)"><path d="M43.946,22.829,40.413,24.6Q29.569,30.093,18.725,35.59c-.62.313-1.182.191-1.413-.342a1.092,1.092,0,0,1-.058-.678c.979-3.771,1.981-7.536,2.972-11.307a.955.955,0,0,1,.875-.747c.956-.133,1.912-.278,2.867-.417a.6.6,0,0,0,.3-.1,1.212,1.212,0,0,0-.2-.046c-.973-.145-1.946-.3-2.925-.434a1.034,1.034,0,0,1-.95-.852Q18.74,15.159,17.265,9.656a1.438,1.438,0,0,1,.023-.985l.319-.319a1.28,1.28,0,0,1,1.147.1q4,2.051,8.017,4.078,6.916,3.51,13.827,7.027,1.668.843,3.337,1.674l.278.278a1.147,1.147,0,0,1,0,1.037l-.278.278Zm-2.578-.8c-7.3-3.713-14.54-7.391-21.8-11.076.012.075.017.122.029.168q1.121,4.214,2.23,8.428c.052.2.168.214.324.238l6.9,1.025c.66.1,1.321.185,1.975.3a.923.923,0,0,1,.585,1.506,1.052,1.052,0,0,1-.741.353q-4.353.634-8.712,1.274a.361.361,0,0,0-.353.307q-1.025,3.945-2.074,7.884c-.052.2-.1.394-.168.649,7.276-3.684,14.5-7.351,21.8-11.047Z" transform="translate(-7.266)" fill="#fff"/><path d="M10.248,32.042a2.482,2.482,0,0,1-.678.191c-2.9.012-5.8.006-8.695,0A.928.928,0,1,1,.893,30.38H9.53a.914.914,0,0,1,.909.585A1.082,1.082,0,0,1,10.248,32.042Z" transform="translate(0 -9.307)" fill="#fff"/><path d="M6.728,22.488a1.739,1.739,0,0,1,.562-.156c1.141-.017,2.282-.012,3.429,0a.924.924,0,0,1,.938.921.907.907,0,0,1-.921.927c-1.153.012-2.305.006-3.458,0a.866.866,0,0,1-.863-.6.964.964,0,0,1,.313-1.083Z" transform="translate(-2.707 -5.916)" fill="#fff"/><path d="M6.631,40.094a1.031,1.031,0,0,1-.191-1.043.852.852,0,0,1,.834-.6c1.17-.006,2.34-.012,3.51,0a.9.9,0,0,1,.886.933.912.912,0,0,1-.915.909c-.962.012-1.929,0-2.9,0a3.345,3.345,0,0,1-.591-.012,5.248,5.248,0,0,1-.649-.2Z" transform="translate(-2.714 -12.701)" fill="#fff"/></g></svg>