<svg width="20" height="16" viewBox="0 0 20 16" fill="none" xmlns="http://www.w3.org/2000/svg">
<path d="M18.3333 15.3333H1.66667C0.7475 15.3333 0 14.4737 0 13.4167V1.91667C0 0.859625 0.7475 0 1.66667 0H18.3333C19.2525 0 20 0.859625 20 1.91667V13.4167C20 14.4737 19.2525 15.3333 18.3333 15.3333ZM1.66667 0.958333C1.20708 0.958333 0.833333 1.38815 0.833333 1.91667V13.4167C0.833333 13.9452 1.20708 14.375 1.66667 14.375H18.3333C18.7929 14.375 19.1667 13.9452 19.1667 13.4167V1.91667C19.1667 1.38815 18.7929 0.958333 18.3333 0.958333H1.66667Z" fill="white"/>
<path d="M10.0002 10.1539L2.69059 4.7149C2.49726 4.57068 2.44184 4.27455 2.56684 4.05222C2.69184 3.82988 2.94976 3.76663 3.14309 3.9099L10.0002 9.01255L16.8573 3.9099C17.0506 3.76663 17.3085 3.82988 17.4335 4.05222C17.5585 4.27455 17.5031 4.57068 17.3098 4.7149L10.0002 10.1539Z" fill="white"/>
<path d="M2.50033 12.4584C2.36575 12.4584 2.23325 12.3836 2.15325 12.2451C2.02533 12.0247 2.077 11.7276 2.26866 11.5805L6.01866 8.70553C6.21033 8.55843 6.46908 8.61784 6.59658 8.83826C6.7245 9.05868 6.67283 9.35576 6.48116 9.50286L2.73116 12.3779C2.65991 12.432 2.5795 12.4584 2.50033 12.4584Z" fill="white"/>
<path d="M17.4995 12.4584C17.4203 12.4584 17.3399 12.432 17.2687 12.3779L13.5187 9.50286C13.327 9.35576 13.2753 9.05868 13.4032 8.83826C13.5307 8.61784 13.7891 8.55843 13.9812 8.70553L17.7312 11.5805C17.9228 11.7276 17.9745 12.0247 17.8466 12.2451C17.7666 12.3836 17.6341 12.4584 17.4995 12.4584Z" fill="white"/>
</svg>
