<?xml version="1.0" encoding="UTF-8"?><svg id="Layer_1" xmlns="http://www.w3.org/2000/svg" viewBox="0 0 512 512"><path fill="#ffffff" d="M319.97,0c2.73,1.61,5.04,2.89,7.52,4.98,41.03,34.56,77.68,82.66,118.44,118.44l4.54,7.45.47,339.44c-1.71,21.61-19.11,39.1-40.53,41.43-105.38-.94-211.2,1.98-316.34-1.48-18.14-5.05-32.13-21.84-33.02-40.94l.06-428.82c1.64-15.47,10.97-28.21,24.29-35.68l13.68-4.81h220.89ZM300.98,29.99H103.58c-3.68,0-11.05,6.29-11.56,10.43-1.56,143.38-1.56,287.53,0,430.91,2.02,6.63,7.78,10.02,14.52,10.48l303.95-.98c4.15-.51,10.43-7.88,10.43-11.56V149.93h-81.46c-15.65,0-38.48-22.84-38.48-38.48V29.99ZM398.94,119.94l-67.97-67.97v55.47c0,4.34,8.15,12.49,12.49,12.49h55.47Z"/><path fill="#ffffff" d="M162.78,212.13l184.68-.23c15.86,1.81,18.54,22.94,4.05,29.04-63.36,1.58-127.65,1.58-191,0-13.76-5.92-12.24-25.08,2.28-28.8Z"/><path fill="#ffffff" d="M162.78,272.1l184.68-.23c15.86,1.81,18.54,22.94,4.05,29.04-63.36,1.58-127.65,1.58-191,0-13.76-5.92-12.24-25.08,2.28-28.8Z"/><path fill="#ffffff" d="M162.78,332.07l184.68-.23c15.86,1.81,18.54,22.94,4.05,29.04-63.36,1.58-127.65,1.58-191,0-13.76-5.92-12.24-25.08,2.28-28.8Z"/><path fill="#ffffff" d="M162.78,392.04l125.62-.15c15.16,2.96,17.28,22.84,3.13,28.95l-127.9.86c-16.37-3.32-17.02-25.36-.85-29.67Z"/></svg>