<svg width="20" height="20" viewBox="0 0 20 20" fill="none" xmlns="http://www.w3.org/2000/svg">
<path d="M8.79125 2.10982C9.4895 1.52101 10.5105 1.52101 11.2087 2.10983L16.8338 6.85325C17.2562 7.20952 17.5 7.734 17.5 8.28663V16.4556C17.5 17.261 16.8471 17.9139 16.0417 17.9139H13.125C12.3196 17.9139 11.6667 17.261 11.6667 16.4556V11.8723C11.6667 11.7573 11.5734 11.6639 11.4583 11.6639H8.54167C8.42658 11.6639 8.33333 11.7573 8.33333 11.8723V16.4556C8.33333 17.261 7.68042 17.9139 6.875 17.9139H3.95833C3.15292 17.9139 2.5 17.261 2.5 16.4556V8.28663C2.5 7.734 2.74379 7.20952 3.16627 6.85325L8.79125 2.10982ZM10.4029 3.06542C10.1702 2.86914 9.82983 2.86914 9.59708 3.06542L3.97209 7.80884C3.83127 7.92759 3.75 8.10243 3.75 8.28663V16.4556C3.75 16.5707 3.84327 16.6639 3.95833 16.6639H6.875C6.99006 16.6639 7.08333 16.5707 7.08333 16.4556V11.8723C7.08333 11.0668 7.73625 10.4139 8.54167 10.4139H11.4583C12.2637 10.4139 12.9167 11.0668 12.9167 11.8723V16.4556C12.9167 16.5707 13.0099 16.6639 13.125 16.6639H16.0417C16.1567 16.6639 16.25 16.5707 16.25 16.4556V8.28663C16.25 8.10243 16.1687 7.92759 16.0279 7.80884L10.4029 3.06542Z" fill="white"/>
</svg>
